<svg xmlns="http://www.w3.org/2000/svg" width="69.192" height="70.308" viewBox="0 0 69.192 70.308">
  <path id="maintenance" d="M65.844,63.612a3.348,3.348,0,1,0,3.348,3.348A3.352,3.352,0,0,0,65.844,63.612Zm0,4.464A1.116,1.116,0,1,1,66.96,66.96,1.117,1.117,0,0,1,65.844,68.076ZM3.348,0A3.348,3.348,0,1,0,6.7,3.348,3.352,3.352,0,0,0,3.348,0Zm0,4.464A1.116,1.116,0,1,1,4.464,3.348,1.118,1.118,0,0,1,3.348,4.464ZM63.612,35.4V22.631l-4.666-1.556a24.54,24.54,0,0,0-1.2-2.861L59.955,13.8,50.926,4.773,46.514,6.979a24.542,24.542,0,0,0-2.861-1.2L42.1,1.116H29.327L27.771,5.782a24.54,24.54,0,0,0-2.861,1.2L20.5,4.773,11.469,13.8l2.206,4.412a24.541,24.541,0,0,0-1.2,2.861L7.812,22.631V35.4l4.666,1.555a24.426,24.426,0,0,0,1.185,2.839l-1.435,2.615H5.58v22.32h7.812V61.38h8.466l3.348,3.348h6.042v1.116a4.464,4.464,0,0,0,8.928,0V64.728h7.813a3.334,3.334,0,0,0,2.478-5.58,3.3,3.3,0,0,0,0-4.464,3.324,3.324,0,0,0,.819-1.722l8.667-8.736-2.2-4.408a24.73,24.73,0,0,0,1.2-2.861ZM11.16,62.5H7.812V44.64H11.16Zm14.97,0-3.348-3.348h-9.39V46.872H25.014l4.464-4.464H43.524a1.116,1.116,0,0,1,0,2.232H31.9l-4.791,4.791,1.578,1.578,2.559-2.559V62.5Zm22.975-5.58a1.117,1.117,0,0,1-1.116,1.116H39.06a1.116,1.116,0,1,1,0-2.232h8.929A1.117,1.117,0,0,1,49.105,56.916ZM39.06,53.568a1.116,1.116,0,1,1,0-2.232h8.929a1.116,1.116,0,1,1,0,2.232ZM47.989,49.1H39.06a1.116,1.116,0,1,1,0-2.232h8.929a1.116,1.116,0,1,1,0,2.232ZM33.018,29.016h5.388l1.77-1.77V22.32a2.234,2.234,0,0,1,2.232,2.232V29.67L38.6,33.48H32.826l-3.81-3.81V24.552a2.234,2.234,0,0,1,2.232-2.232v4.926Zm.462,6.7h4.464v4.464H33.48Zm6.7-.654,4.464-4.464V24.552a4.468,4.468,0,0,0-4.464-4.464H37.944v6.234l-.462.462h-3.54l-.462-.462V20.088H31.248a4.468,4.468,0,0,0-4.464,4.464v6.042l4.464,4.464v5.118H28.554l-.07.07a13.385,13.385,0,1,1,14.578-.07H40.176Zm6.643,7.936a3.323,3.323,0,0,0-1.112-1.986,15.625,15.625,0,1,0-18.848.864l-1.607,1.607a17.852,17.852,0,1,1,21.567-.484ZM35.712,68.076a2.234,2.234,0,0,1-2.232-2.232V46.872h2.437a3.245,3.245,0,0,0,.665,3.348,3.3,3.3,0,0,0,0,4.464,3.3,3.3,0,0,0,0,4.464,3.317,3.317,0,0,0,1.362,5.375v1.321a2.234,2.234,0,0,1-2.232,2.232ZM47.989,62.5H39.06a1.116,1.116,0,1,1,0-2.232h8.929a1.116,1.116,0,1,1,0,2.232Zm9.252-18.7-6.595,6.645c-.057-.075-.117-.148-.179-.217a3.32,3.32,0,0,0-2.17-5.549,20.092,20.092,0,1,0-25.2-.031H13.55l2.641-4.812-.275-.53a22.36,22.36,0,0,1-1.489-3.561l-.172-.542-4.211-1.4V24.24l4.211-1.4.171-.543a22.166,22.166,0,0,1,1.489-3.56l.263-.506-1.992-3.985,6.753-6.753,3.985,1.992.506-.262a22.212,22.212,0,0,1,3.56-1.489l.543-.171,1.405-4.212h9.551l1.4,4.211.543.171a22.166,22.166,0,0,1,3.56,1.489l.506.263,3.985-1.992,6.753,6.753-1.992,3.985.262.506A22.212,22.212,0,0,1,57,22.292l.171.543,4.212,1.405v9.551L57.17,35.2,57,35.738A22.338,22.338,0,0,1,55.509,39.3l-.262.506ZM4.464,12.276H2.232V10.044H4.464Zm0,5.58H2.232V15.624H4.464ZM2.232,21.2H4.464v2.232H2.232ZM66.96,49.1H64.728V46.872H66.96Zm-2.232,3.348H66.96v2.232H64.728Zm0,5.58H66.96v2.232H64.728Zm0,0" fill="#ff5b8c"/>
</svg>
