<svg xmlns="http://www.w3.org/2000/svg" width="19.061" height="33.636" viewBox="0 0 19.061 33.636">
  <g id="Oil" transform="translate(0 0)">
    <path id="Path_1834" data-name="Path 1834" d="M33.352,18.37l-8.261-9.3V3.682A1.682,1.682,0,0,0,23.409,2H16.682A1.682,1.682,0,0,0,15,3.682V33.955a1.682,1.682,0,0,0,1.682,1.682h15.7a1.682,1.682,0,0,0,1.682-1.682V20.232A2.8,2.8,0,0,0,33.352,18.37ZM16.121,7.606H23.97V8.727H16.121Zm0-3.924a.561.561,0,0,1,.561-.561h6.727a.561.561,0,0,1,.561.561v2.8H22.849V5.364H21.727V6.485H20.606V5.364H19.485V6.485H18.364V5.364H17.242V6.485H16.121ZM32.939,33.955a.561.561,0,0,1-.561.561h-15.7a.561.561,0,0,1-.561-.561V9.848h8.157l8.236,9.266a1.682,1.682,0,0,1,.425,1.117Z" transform="translate(-15 -2)" fill="#f9bd3a"/>
    <path id="Path_1835" data-name="Path 1835" d="M26.242,20.376A1.125,1.125,0,0,0,25.4,20H22.121A1.121,1.121,0,0,0,21,21.121V39.061a1.121,1.121,0,0,0,1.121,1.121H32.212a1.121,1.121,0,0,0,1.121-1.121V28.78a1.118,1.118,0,0,0-.284-.745Zm5.97,18.685H22.121V21.121H25.4l6.808,7.659Z" transform="translate(-17.636 -9.909)" fill="#f9bd3a"/>
    <path id="Path_1836" data-name="Path 1836" d="M29.8,42.86a2.806,2.806,0,0,0,2.8-2.8c0-1.345-1.95-4.238-2.342-4.8a.582.582,0,0,0-.923,0C28.95,35.82,27,38.712,27,40.057A2.806,2.806,0,0,0,29.8,42.86Zm0-6.274a10.909,10.909,0,0,1,1.682,3.471,1.682,1.682,0,1,1-3.364,0A10.909,10.909,0,0,1,29.8,36.586Z" transform="translate(-20.273 -16.512)" fill="#f9bd3a"/>
  </g>
</svg>
