<svg xmlns="http://www.w3.org/2000/svg" width="70.306" height="70.308" viewBox="0 0 70.306 70.308">
  <g id="Group_1738" data-name="Group 1738" transform="translate(-368 -1552.192)">
    <path id="Path_4483" data-name="Path 4483" d="M324.013,312.31l-13.972-13.972-.586.586a2.485,2.485,0,1,1-3.514-3.514h0l.586-.586-3.514-3.514L291.3,303.023l3.514,3.514.586-.586a2.485,2.485,0,0,1,3.514,3.514l-.586.586L312.3,324.022a8.292,8.292,0,0,0,1.395,1.114L325.127,313.7A8.3,8.3,0,0,0,324.013,312.31Z" transform="translate(110.665 1294.851)" fill="#fff"/>
    <path id="Path_4484" data-name="Path 4484" d="M494.784,483.362l-11.432,11.432a8.273,8.273,0,0,0,11.432-11.432Z" transform="translate(-58.991 1125.193)" fill="#fff"/>
    <path id="Path_4485" data-name="Path 4485" d="M24.109,19.434l-1.171-4.685-8.2-4.685-4.685,4.685,4.685,8.2,4.685,1.171L46.363,51.058l4.685-4.685Z" transform="translate(359.117 1543.301)" fill="#fff"/>
    <path id="Path_4486" data-name="Path 4486" d="M76.468,19.788l-7.8,7.8-7.028-2.343-2.343-7.028,7.8-7.8a12.83,12.83,0,0,0-15.6,15.6L24.93,52.586a12.957,12.957,0,1,0,9.37,9.37L60.864,35.392a12.836,12.836,0,0,0,15.6-15.6Zm-51.14,51.14H18.3l-3.514-5.856L18.3,59.215h7.028l3.514,5.856Z" transform="translate(360.241 1543.343)" fill="#fff"/>
    <path id="Path_4487" data-name="Path 4487" d="M557.144,487.823a8.263,8.263,0,0,0-1.312-4.461l-3.373,3.373v8.54A8.274,8.274,0,0,0,557.144,487.823Z" transform="translate(-120.04 1125.193)" fill="#fff"/>
    <path id="Path_4488" data-name="Path 4488" d="M.2,6.519l4.685,8.2a1.168,1.168,0,0,0,.732.555l4.371,1.093L24.98,31.358,26.636,29.7,11.409,14.475a1.169,1.169,0,0,0-.544-.308l-4.2-1.054L2.676,6.129,6.1,2.709,13.084,6.7l1.054,4.2a1.173,1.173,0,0,0,.308.545L29.673,26.673l1.656-1.656L16.337,10.025,15.244,5.656a1.168,1.168,0,0,0-.555-.733L6.49.238A1.172,1.172,0,0,0,5.085.426L.4,5.111A1.17,1.17,0,0,0,.2,6.519Z" transform="translate(367.955 1552.117)" fill="#17b0d2"/>
    <rect id="Rectangle_465" data-name="Rectangle 465" width="36.441" height="2.343" transform="translate(389.426 1599.387) rotate(-45)" fill="#17b0d2"/>
    <path id="Path_4489" data-name="Path 4489" d="M62.954,422.457a1.171,1.171,0,0,0-1-.568H54.922a1.171,1.171,0,0,0-1,.568L50.4,428.313a1.174,1.174,0,0,0,0,1.206l3.514,5.856a1.171,1.171,0,0,0,1,.568H61.95a1.171,1.171,0,0,0,1-.568l3.514-5.856a1.174,1.174,0,0,0,0-1.206ZM61.287,433.6h-5.7l-2.811-4.685,2.811-4.685h5.7l2.811,4.685Z" transform="translate(323.619 1179.498)" fill="#17b0d2"/>
    <path id="Path_4490" data-name="Path 4490" d="M56.231,28.112A14.008,14.008,0,0,0,69.856,10.661a1.171,1.171,0,0,0-1.964-.546L60.6,17.4l-5.785-1.928L52.886,9.69,60.177,2.4A1.172,1.172,0,0,0,59.628.432,14.012,14.012,0,0,0,42.176,14.057a13.761,13.761,0,0,0,.285,2.744L16.81,42.452a13.848,13.848,0,0,0-2.744-.285A14.055,14.055,0,1,0,28.121,56.223a13.761,13.761,0,0,0-.285-2.744l6.141-6.141,2.686,2.686a1.172,1.172,0,0,0,1.656,0l.586-.586a1.314,1.314,0,0,1,1.86,1.855l0,0-.586.586a1.172,1.172,0,0,0,0,1.656L54.149,67.509A9.453,9.453,0,0,0,67.579,54.2l-.061-.061L53.546,40.168a1.172,1.172,0,0,0-1.656,0l-.586.586a1.314,1.314,0,0,1-1.86-1.855l0,0,.586-.586a1.172,1.172,0,0,0,0-1.656l-2.686-2.686,6.141-6.141A13.849,13.849,0,0,0,56.231,28.112Zm4.6,39.823a7.1,7.1,0,0,1-2.491-.454l9.148-9.148a7.1,7.1,0,0,1-6.656,9.6ZM47.564,37.494a3.655,3.655,0,0,0,5.154,5.147L65.862,55.8c.143.143.276.294.405.447L56.253,66.258c-.153-.129-.3-.262-.447-.405L42.651,52.7A3.655,3.655,0,0,0,37.5,47.551l-1.874-1.874L45.69,35.625Zm4.729-11.781L25.724,52.279a1.171,1.171,0,0,0-.309,1.113A11.791,11.791,0,1,1,16.9,44.874a1.183,1.183,0,0,0,1.113-.309L44.574,18a1.173,1.173,0,0,0,.308-1.113A11.658,11.658,0,0,1,56.9,2.363L50.718,8.544a1.17,1.17,0,0,0-.283,1.2l2.343,7.028a1.169,1.169,0,0,0,.741.74l7.028,2.343a1.17,1.17,0,0,0,1.2-.282l6.178-6.178c.014.224.021.445.021.665A11.652,11.652,0,0,1,53.4,25.406a1.173,1.173,0,0,0-1.113.308Z" transform="translate(367.989 1552.192)" fill="#17b0d2"/>
    <rect id="Rectangle_466" data-name="Rectangle 466" width="2.343" height="16.564" transform="translate(415.191 1601.045) rotate(-45)" fill="#17b0d2"/>
  </g>
</svg>
