<svg id="wrench" xmlns="http://www.w3.org/2000/svg" width="37.775" height="38.036" viewBox="0 0 37.775 38.036">
  <g id="Group_1122" data-name="Group 1122" transform="translate(17.701 0)">
    <g id="Group_1121" data-name="Group 1121">
      <path id="Path_1847" data-name="Path 1847" d="M258.916,3.463l-2.286-2.286a4.176,4.176,0,0,0-5.6-.193l-4.017,3.482a.648.648,0,0,0-.131.155l-3.91,6.513-2.511.837a.645.645,0,0,0-.252,1.068l6.842,6.842a.645.645,0,0,0,1.068-.252l.837-2.511,6.609-3.991a.644.644,0,0,0,.155-.131l3.4-3.939A4.18,4.18,0,0,0,258.916,3.463Zm-.771,4.752-3.332,3.862-6.725,4.061a.645.645,0,0,0-.279.348l-.582,1.747-1.542-1.542h0L243.4,14.408h0l-1.542-1.542,1.747-.582a.645.645,0,0,0,.349-.28l3.98-6.63,3.939-3.415a2.865,2.865,0,0,1,3.841.131L258,4.375A2.868,2.868,0,0,1,258.146,8.214Z" transform="translate(-240.023 0)" fill="#ff8743"/>
    </g>
  </g>
  <g id="Group_1124" data-name="Group 1124" transform="translate(0 1.19)">
    <g id="Group_1123" data-name="Group 1123">
      <path id="Path_1848" data-name="Path 1848" d="M36.517,40.754a7.1,7.1,0,0,0-7.207-1.734L15.6,25.311a7.1,7.1,0,0,0-9.344-8.8.645.645,0,0,0-.221,1.057l4.1,4.1L7.4,24.411l-4.1-4.1a.645.645,0,0,0-1.057.221,7.1,7.1,0,0,0,8.8,9.344L16.165,35,9.781,41.383l-4.06,2.27a.645.645,0,0,0-.262.275L3.633,47.577a.645.645,0,0,0,.121.745L6.035,50.6a.645.645,0,0,0,.745.121L10.429,48.9a.645.645,0,0,0,.275-.262l2.27-4.061,6.384-6.384,5.39,5.39a7.1,7.1,0,0,0,9.344,8.8.645.645,0,0,0,.221-1.057l-4.1-4.1,2.737-2.737,4.1,4.1a.645.645,0,0,0,1.057-.221A7.1,7.1,0,0,0,36.517,40.754ZM12,43.727a.644.644,0,0,0-.107.141L9.674,47.833,6.619,49.361,5,47.738l1.528-3.056,3.965-2.217a.644.644,0,0,0,.141-.107l6.447-6.447,1.368,1.368Zm25.2,3.179L33.4,43.113a.645.645,0,0,0-.912,0l-3.649,3.649a.645.645,0,0,0,0,.912l3.793,3.793a5.809,5.809,0,0,1-6.54-7.817.645.645,0,0,0-.144-.692L11.662,28.671a.645.645,0,0,0-.692-.144,5.809,5.809,0,0,1-7.817-6.54L6.946,25.78a.645.645,0,0,0,.912,0l3.649-3.649a.645.645,0,0,0,0-.912L7.714,17.425a5.809,5.809,0,0,1,6.54,7.817.645.645,0,0,0,.144.692L28.686,40.222a.645.645,0,0,0,.692.144,5.809,5.809,0,0,1,7.817,6.54Z" transform="translate(-1.752 -16.024)" fill="#ff8743"/>
    </g>
  </g>
</svg>
