<svg xmlns="http://www.w3.org/2000/svg" width="69.5" height="69.5" viewBox="0 0 69.5 69.5">
  <path id="assistant" d="M54.806,57.477v5.869l5.6,2.8,5.6-2.8V57.477l-5.6-2.8Zm8.968,4.484-3.363,1.681L57.048,61.96v-3.1l3.363-1.681,3.363,1.681ZM50.323,59.29h2.242v2.242H50.323Zm-4.484,0h2.242v2.242H45.839Zm-4.484,0H43.6v2.242H41.355Zm19.056-8.968a10.039,10.039,0,0,0-5.165,1.455,20.124,20.124,0,0,0-13.918-14.13,11.272,11.272,0,0,0,4.746-5.261h.943a5.6,5.6,0,0,0,3.139-10.246,14.543,14.543,0,0,0-28.7,0A5.6,5.6,0,0,0,24.6,32.387h.943a11.276,11.276,0,0,0,4.743,5.258A20.1,20.1,0,0,0,16.348,51.835a10.053,10.053,0,0,0-5.26-1.512,10.2,10.2,0,0,0-8.816,5.043L1.488,56.72l6.684,1.336,1.569,2.355L8.172,62.766,1.488,64.1l.785,1.354a10.152,10.152,0,0,0,17.2.559H52.032a10.085,10.085,0,1,0,8.379-15.694ZM53.293,53.3a10.064,10.064,0,0,0-1.261,1.505H48.081V50.323H45.839v4.484h-5.76l-1.317-6.29,3.246,2.6,2.861-9.536A17.884,17.884,0,0,1,53.293,53.3ZM30.8,47.289,28.78,40.56c.129-.055.257-.111.387-.163l4.894,4.282Zm5.007-1.137.2.164,1.779,8.49H33.822l1.77-8.482Zm1.746-1.473L42.443,40.4c.131.053.26.108.389.164L40.815,47.29Zm9.463-14.534h-.226a11.16,11.16,0,0,0-.716-6.726h.943a3.363,3.363,0,0,1,0,6.726ZM35.806,12.21a12.334,12.334,0,0,1,11.86,9.034,5.388,5.388,0,0,0-.65-.066H44.752a11.167,11.167,0,0,0-17.893,0H24.6a5.411,5.411,0,0,0-.65.066A12.335,12.335,0,0,1,35.806,12.21ZM24.6,30.145a3.363,3.363,0,0,1,0-6.726h.943a11.16,11.16,0,0,0-.716,6.726ZM26.838,27.9a8.968,8.968,0,1,1,17.641,2.242h-4.4A3.358,3.358,0,0,0,36.927,27.9H34.685a3.363,3.363,0,1,0,0,6.726h2.242a3.358,3.358,0,0,0,3.157-2.242h3.477A8.96,8.96,0,0,1,26.838,27.9Zm11.21,3.363a1.123,1.123,0,0,1-1.121,1.121H34.685a1.121,1.121,0,1,1,0-2.242h2.242A1.122,1.122,0,0,1,38.048,31.266Zm1.892,8.344-4.134,3.617-4.135-3.618a17.442,17.442,0,0,1,8.269,0Zm-13.2,1.962L29.6,51.114l3.237-2.591-1.31,6.283H25.661V50.323H23.419v4.484H19.468a10.079,10.079,0,0,0-1.17-1.412,17.869,17.869,0,0,1,8.444-11.822ZM60.411,68.258a7.877,7.877,0,0,1-6.789-3.925l-.324-.559H18.2l-.324.559a7.877,7.877,0,0,1-6.789,3.925,7.994,7.994,0,0,1-5.913-2.606l4.346-.869,2.915-4.371L9.522,56.042l-4.346-.869a7.988,7.988,0,0,1,5.913-2.608,7.877,7.877,0,0,1,6.789,3.925l.324.559H53.3l.324-.559a7.844,7.844,0,1,1,6.787,11.769ZM60.005,6.6H55.927a3.367,3.367,0,0,0-3.363,3.363v11.21a3.367,3.367,0,0,0,3.363,3.363h4.078l6.726,5.6H70.5V1H66.731ZM59.29,22.3H55.927a1.123,1.123,0,0,1-1.121-1.121V9.968a1.123,1.123,0,0,1,1.121-1.121H59.29ZM68.258,3.242V27.9h-.715l-6.011-5.008V8.25l6.011-5.008ZM66.016,12.21H63.774V9.968h2.242Zm0,4.484H63.774V14.452h2.242Zm-2.242,4.484V18.935h2.242v2.242ZM11.494,24.54h4.078a3.367,3.367,0,0,0,3.363-3.363V9.968A3.367,3.367,0,0,0,15.573,6.6H11.494L4.769,1H1V30.145H4.769ZM12.21,8.847h3.363a1.123,1.123,0,0,1,1.121,1.121v11.21A1.123,1.123,0,0,1,15.573,22.3H12.21ZM3.242,27.9V3.242h.715L9.968,8.25V22.895L3.957,27.9ZM7.726,9.968V12.21H5.484V9.968ZM5.484,14.452H7.726v2.242H5.484Zm0,4.484H7.726v2.242H5.484Z" transform="translate(-1 -1)" fill="#41449c"/>
</svg>
