<svg xmlns="http://www.w3.org/2000/svg" width="33.634" height="33.633" viewBox="0 0 33.634 33.633">
  <g id="cooling-system" transform="translate(0 0)">
    <g id="Group_1108" data-name="Group 1108" transform="translate(0 7.894)">
      <g id="Group_1107" data-name="Group 1107">
        <path id="Path_1822" data-name="Path 1822" d="M25.209,144.921H3.12a2.137,2.137,0,0,1-2.135-2.135V120.66a.493.493,0,1,0-.985,0v22.127a3.124,3.124,0,0,0,3.12,3.12H25.209a.493.493,0,1,0,0-.985Z" transform="translate(0 -120.167)" fill="#2f6ec1"/>
      </g>
    </g>
    <g id="Group_1110" data-name="Group 1110">
      <g id="Group_1109" data-name="Group 1109">
        <path id="Path_1823" data-name="Path 1823" d="M30.513,0H3.12A3.124,3.124,0,0,0,0,3.12V6.284a.493.493,0,1,0,.985,0V3.12A2.137,2.137,0,0,1,3.12.985H30.513A2.137,2.137,0,0,1,32.648,3.12V30.513a2.137,2.137,0,0,1-2.135,2.135H27.36a.493.493,0,0,0,0,.985h3.153a3.124,3.124,0,0,0,3.12-3.12V3.12A3.124,3.124,0,0,0,30.513,0Z" fill="#2f6ec1"/>
      </g>
    </g>
    <g id="Group_1112" data-name="Group 1112" transform="translate(3.514 3.514)">
      <g id="Group_1111" data-name="Group 1111">
        <path id="Path_1824" data-name="Path 1824" d="M66.8,53.5A13.3,13.3,0,1,0,80.1,66.8,13.317,13.317,0,0,0,66.8,53.5Zm.493,1A12.332,12.332,0,0,1,79.108,66.31H76.15a9.381,9.381,0,0,0-6.329-8.369c0-.066.007-.108.008-.122s0-.019,0-.029a2.956,2.956,0,0,0-2.534-2.868ZM72.2,66.31a5.428,5.428,0,0,0-2.833-4.281c.184-1.155.3-2.275.375-3.069a8.393,8.393,0,0,1,5.423,7.35Zm2.965.985a8.364,8.364,0,0,1-.093.846c-.526-.24-1.21-.542-1.961-.846Zm-3.954-.985h-.877q-.238-.069-.471-.13a3.121,3.121,0,0,0-1-1.718c.12-.443.226-.916.32-1.4A4.438,4.438,0,0,1,71.208,66.31Zm-1.325.985h.3c.319.1.646.2.973.317a4.433,4.433,0,0,1-1.46,2.542c-.345-.294-.679-.593-.985-.889A3.121,3.121,0,0,0,69.883,67.295Zm2.213.662c1.077.414,2.082.86,2.753,1.169a8.378,8.378,0,0,1-1.983,3.449c-.6-.422-1.5-1.065-2.4-1.786A5.42,5.42,0,0,0,72.1,67.956Zm3.651,1.605A2.073,2.073,0,0,1,73.7,73.128,9.365,9.365,0,0,0,75.748,69.562ZM67.295,55.925a1.968,1.968,0,0,1,1.544,1.741,9.324,9.324,0,0,0-1.544-.211Zm0,2.517a8.344,8.344,0,0,1,1.481.221c-.063.732-.174,1.827-.348,2.97a5.391,5.391,0,0,0-1.133-.226Zm0,3.955a4.4,4.4,0,0,1,.968.22c-.082.446-.174.885-.277,1.3a3.1,3.1,0,0,0-.691-.195Zm0,2.329a2.142,2.142,0,0,1,1.584,1.584H67.295Zm0,2.57h1.584a2.142,2.142,0,0,1-1.584,1.584Zm.514,2.46c.323.325.679.652,1.049.974a4.4,4.4,0,0,1-1.563.479V69.883h0A3.1,3.1,0,0,0,67.809,69.755ZM66.31,54.5v.419a2.959,2.959,0,0,0-2.572,2.875c0,.011,0,.021,0,.032s0,.061.009.132a9.38,9.38,0,0,0-6.294,8.356H54.5A12.332,12.332,0,0,1,66.31,54.5Zm-4.9,11.813H58.442a8.393,8.393,0,0,1,5.392-7.339c.076.8.2,1.913.391,3.065A5.429,5.429,0,0,0,61.406,66.31Zm3.007-3.24c.1.481.2.952.326,1.394a3.12,3.12,0,0,0-1,1.731q-.2.054-.407.114H62.4A4.438,4.438,0,0,1,64.413,63.07Zm-3.83,4.225c-.785.321-1.5.64-2.041.892a8.36,8.36,0,0,1-.1-.892Zm-.639,5.872a1.859,1.859,0,0,1-1.369.108,2.164,2.164,0,0,1-1.466-2.54,1.857,1.857,0,0,1,.763-1.12A9.365,9.365,0,0,0,59.945,73.167Zm-1.177-4c.665-.311,1.669-.762,2.747-1.184a5.422,5.422,0,0,0,1.644,2.825c-.9.725-1.785,1.372-2.387,1.8A8.38,8.38,0,0,1,58.768,69.17Zm3.68-1.533c.347-.123.693-.239,1.031-.341h.242a3.122,3.122,0,0,0,1.185,1.983c-.305.3-.638.6-.981.894A4.435,4.435,0,0,1,62.448,67.636Zm3.368,2.126a3.089,3.089,0,0,0,.493.121v1.325a4.4,4.4,0,0,1-1.538-.466C65.14,70.418,65.494,70.088,65.816,69.762Zm-1.091-2.467H66.31v1.584A2.142,2.142,0,0,1,64.725,67.295Zm0-.985a2.142,2.142,0,0,1,1.584-1.584V66.31Zm.889-2.392c-.105-.413-.2-.852-.284-1.3a4.4,4.4,0,0,1,.979-.224v1.325A3.09,3.09,0,0,0,65.614,63.918Zm-.453-2.28c-.179-1.14-.3-2.234-.364-2.968a8.334,8.334,0,0,1,1.513-.228v2.965A5.38,5.38,0,0,0,65.161,61.638Zm-.434-3.964a1.971,1.971,0,0,1,1.583-1.757v1.537A9.333,9.333,0,0,0,64.727,57.674ZM66.31,79.108A12.332,12.332,0,0,1,54.5,67.295h2.958a9.337,9.337,0,0,0,.166,1.331l-.1.052-.026.014a2.827,2.827,0,0,0-1.339,1.814A3.149,3.149,0,0,0,58.3,74.219a2.939,2.939,0,0,0,.839.124,2.8,2.8,0,0,0,1.4-.376l.027-.017.112-.076A9.321,9.321,0,0,0,66.31,76.15v2.958Zm.493-4.653a.493.493,0,0,0-.493.493v.215a8.336,8.336,0,0,1-4.8-1.871c.651-.463,1.555-1.13,2.458-1.87a5.381,5.381,0,0,0,2.338.777v.363a.493.493,0,1,0,.985,0V72.2a5.38,5.38,0,0,0,2.366-.795c.907.736,1.815,1.4,2.468,1.858a8.336,8.336,0,0,1-4.834,1.9v-.215A.493.493,0,0,0,66.8,74.455Zm.493,4.653V76.15a9.322,9.322,0,0,0,5.673-2.311l.108.072.025.015a2.794,2.794,0,0,0,1.4.374,3.073,3.073,0,0,0,2.642-1.556,2.985,2.985,0,0,0-1-4.093l-.028-.015-.125-.061a9.339,9.339,0,0,0,.156-1.28h2.958A12.332,12.332,0,0,1,67.295,79.108Z" transform="translate(-53.5 -53.5)" fill="#2f6ec1"/>
      </g>
    </g>
    <g id="Group_1114" data-name="Group 1114" transform="translate(2.069 2.036)">
      <g id="Group_1113" data-name="Group 1113">
        <path id="Path_1825" data-name="Path 1825" d="M32.978,31a1.478,1.478,0,1,0,1.478,1.478A1.48,1.48,0,0,0,32.978,31Zm0,1.971a.493.493,0,1,1,.493-.493A.493.493,0,0,1,32.978,32.971Z" transform="translate(-31.5 -31)" fill="#2f6ec1"/>
      </g>
    </g>
    <g id="Group_1116" data-name="Group 1116" transform="translate(28.608 2.036)">
      <g id="Group_1115" data-name="Group 1115">
        <path id="Path_1826" data-name="Path 1826" d="M436.978,31a1.478,1.478,0,1,0,1.478,1.478A1.48,1.48,0,0,0,436.978,31Zm0,1.971a.493.493,0,1,1,.493-.493A.493.493,0,0,1,436.978,32.971Z" transform="translate(-435.5 -31)" fill="#2f6ec1"/>
      </g>
    </g>
    <g id="Group_1118" data-name="Group 1118" transform="translate(2.069 28.641)">
      <g id="Group_1117" data-name="Group 1117">
        <path id="Path_1827" data-name="Path 1827" d="M32.978,436a1.478,1.478,0,1,0,1.478,1.478A1.48,1.48,0,0,0,32.978,436Zm0,1.971a.493.493,0,1,1,.493-.493A.493.493,0,0,1,32.978,437.971Z" transform="translate(-31.5 -436)" fill="#2f6ec1"/>
      </g>
    </g>
    <g id="Group_1120" data-name="Group 1120" transform="translate(28.608 28.641)">
      <g id="Group_1119" data-name="Group 1119">
        <path id="Path_1828" data-name="Path 1828" d="M436.978,436a1.478,1.478,0,1,0,1.478,1.478A1.48,1.48,0,0,0,436.978,436Zm0,1.971a.493.493,0,1,1,.493-.493A.493.493,0,0,1,436.978,437.971Z" transform="translate(-435.5 -436)" fill="#2f6ec1"/>
      </g>
    </g>
  </g>
</svg>
