<svg xmlns="http://www.w3.org/2000/svg" width="66.621" height="70.308" viewBox="0 0 66.621 70.308">
  <g id="Group_1739" data-name="Group 1739" transform="translate(-530.379 -1552.192)">
    <path id="Path_4491" data-name="Path 4491" d="M29.167,206.542h-3.9V204.57a14.064,14.064,0,0,0,1.2-1.072,11.621,11.621,0,0,0,3.3-8.145v-3.6a6.185,6.185,0,0,0,1.543.2,6.311,6.311,0,0,0,1.043-.085,5.808,5.808,0,0,0,2.315-10.475,5.944,5.944,0,0,0-7.017.3,11.389,11.389,0,0,0-20.607,6.688v6.988a11.65,11.65,0,0,0,3.33,8.145,11,11,0,0,0,1.643,1.415v1.629H8.131A8.139,8.139,0,0,0,0,214.7v6.159A1.147,1.147,0,0,0,1.144,222H36.169a1.147,1.147,0,0,0,1.143-1.143v-6.188a8.157,8.157,0,0,0-8.145-8.131Zm4.173-23.293a3.516,3.516,0,0,1,.886,4.9,3.6,3.6,0,0,1-2.3,1.458,3.653,3.653,0,0,1-2.172-.286v-.957a11.413,11.413,0,0,0-.972-4.673,3.675,3.675,0,0,1,4.559-.443ZM9.317,188.365a9.1,9.1,0,0,1,18.192-.286,7.945,7.945,0,0,1-2.087-3.316,1.143,1.143,0,0,0-2.1-.286c-1.786,3.087-4.787,4.816-8.931,5.159a19.586,19.586,0,0,1-5.087-.271v-1Zm0,6.988v-3.659a21.571,21.571,0,0,0,3.6.286c.515,0,1.058-.014,1.615-.057a13.35,13.35,0,0,0,9.532-4.544,9.643,9.643,0,0,0,3.416,3.573v4.4a9.316,9.316,0,0,1-2.644,6.545,8.834,8.834,0,0,1-12.5.314c-.114-.1-.214-.214-.314-.314a9.221,9.221,0,0,1-2.7-6.545Zm9.1,11.59a10.916,10.916,0,0,0,4.544-.986v1.086l-4.458,2.772-4.23-2.758v-.914A11.369,11.369,0,0,0,18.42,206.943ZM2.272,214.673a5.865,5.865,0,0,1,5.845-5.859H12.8l4.544,2.973v7.931H2.272Zm32.739,5.045H19.649v-7.9l4.8-2.986h4.716a5.867,5.867,0,0,1,5.859,5.859v5.03Zm0,0" transform="translate(530.379 1400.496)" fill="#696bfa"/>
    <path id="Path_4492" data-name="Path 4492" d="M83.89,298.041a1.143,1.143,0,0,0-2.286,0,.607.607,0,0,1-1.215,0,1.143,1.143,0,0,0-2.286,0,2.894,2.894,0,0,0,5.788,0Zm0,0" transform="translate(463.438 1297.721)" fill="#696bfa"/>
    <path id="Path_4493" data-name="Path 4493" d="M142.216,300.914a2.891,2.891,0,0,0,2.873-2.873,1.143,1.143,0,0,0-2.286,0,.607.607,0,0,1-1.215,0,1.143,1.143,0,0,0-2.286,0A2.909,2.909,0,0,0,142.216,300.914Zm0,0" transform="translate(410.984 1297.721)" fill="#696bfa"/>
    <path id="Path_4494" data-name="Path 4494" d="M251.067,20.307V5.573A5.55,5.55,0,0,0,245.552,0H220.843A5.642,5.642,0,0,0,215.2,5.573V20.321a5.63,5.63,0,0,0,5.645,5.559h2.73l.128,6.83a1.135,1.135,0,0,0,1.143,1.129,1.1,1.1,0,0,0,.743-.286l8.889-7.674h11.06a5.523,5.523,0,0,0,5.53-5.516v-.057ZM248.781,5.573V20.321a3.26,3.26,0,0,1-3.215,3.273H234.048a1.1,1.1,0,0,0-.744.286l-7.359,6.359-.1-5.516a1.143,1.143,0,0,0-1.143-1.129h-3.858a3.335,3.335,0,0,1-3.358-3.258V5.573a3.349,3.349,0,0,1,3.358-3.287h24.694a3.244,3.244,0,0,1,3.244,3.258Zm0,0" transform="translate(345.933 1552.192)" fill="#696bfa"/>
    <path id="Path_4495" data-name="Path 4495" d="M302.184,42.192,298,41.578l-1.872-3.8a1.141,1.141,0,0,0-2.044,0l-1.872,3.8-4.2.615a1.147,1.147,0,0,0-.971,1.3,1.248,1.248,0,0,0,.328.657l3.03,2.958-.715,4.173a1.138,1.138,0,0,0,.929,1.315,1.178,1.178,0,0,0,.728-.114l3.758-1.972,3.758,1.972A1.131,1.131,0,0,0,300.4,52a1.169,1.169,0,0,0,.114-.729l-.715-4.173,3.03-2.958a1.134,1.134,0,0,0,.014-1.615,1.113,1.113,0,0,0-.657-.329Zm-4.43,3.687a1.153,1.153,0,0,0-.329,1.014l.429,2.487-2.23-1.172a1.148,1.148,0,0,0-1.057,0l-2.23,1.172.429-2.487a1.166,1.166,0,0,0-.329-1.014l-1.829-1.758,2.5-.357a1.122,1.122,0,0,0,.857-.629l1.114-2.258,1.115,2.243a1.146,1.146,0,0,0,.857.629l2.5.357Zm0,0" transform="translate(284.37 1520.36)" fill="#696bfa"/>
  </g>
</svg>
