<svg xmlns="http://www.w3.org/2000/svg" width="34.964" height="34.964" viewBox="0 0 34.964 34.964">
  <g id="energy-system" transform="translate(0 0)">
    <path id="Path_1829" data-name="Path 1829" d="M155.379,148a7.37,7.37,0,0,0-2.01.279.683.683,0,0,0,.372,1.314,6.02,6.02,0,0,1,2.556-.157.9.9,0,0,0-.194.2l-4.414,6.155a.9.9,0,0,0,.719,1.428h1.531l-.864,3.109a.9.9,0,0,0,.026.61,6.009,6.009,0,0,1-2.926-8.565.683.683,0,0,0-1.183-.683A7.375,7.375,0,1,0,155.379,148Zm-2.054,7.85,2.34-3.263-.4,1.447a.683.683,0,0,0,.658.866h1.513l-2.34,3.263.4-1.447a.683.683,0,0,0-.658-.866Zm2.054,5.534a6.022,6.022,0,0,1-.918-.07.9.9,0,0,0,.194-.2l4.414-6.155a.9.9,0,0,0-.719-1.428h-1.531l.864-3.109a.9.9,0,0,0-.026-.611,6.009,6.009,0,0,1-2.278,11.57Zm0,0" transform="translate(-137.897 -137.893)" fill="#ff6072"/>
    <path id="Path_1830" data-name="Path 1830" d="M27.043,18.165h5.873a.683.683,0,0,0,.683-.683v-3.49a2.049,2.049,0,1,0-1.366,0V16.8h-5.19V10.963h1.776a.683.683,0,0,0,.683-.683V7.163a2.049,2.049,0,1,0-1.366,0V9.6H26.782a2.871,2.871,0,0,0-2.607-1.676H18.165v-1.4H20.9a.683.683,0,0,0,.683-.683V3.98a2.049,2.049,0,1,0-1.366,0V5.158H17.482a.683.683,0,0,0-.683.683v2.08H13.945V3.571a.683.683,0,0,0-.683-.683H11.716a2.049,2.049,0,1,0,0,1.366h.864V7.922H10.79A2.871,2.871,0,0,0,7.922,10.79v5.84h-2.8V10.965a2.049,2.049,0,1,0-1.366,0v6.348A.683.683,0,0,0,4.439,18H7.922v1.535H2.049a.683.683,0,0,0-.683.683V23.7a2.049,2.049,0,1,0,1.366,0V20.9h5.19v2.029H6.829a.683.683,0,0,0-.683.683v4.875a2.049,2.049,0,1,0,1.366,0V24.292h.413a2.871,2.871,0,0,0,2.865,2.751H16.8v1.4H14.068a.683.683,0,0,0-.683.683v1.861a2.049,2.049,0,1,0,1.366,0V29.806h2.732a.683.683,0,0,0,.683-.683v-2.08h3.571v1.721a.683.683,0,1,0,1.366,0V27.043h1.072a2.871,2.871,0,0,0,2.868-2.868V23.34h2.6a2.049,2.049,0,1,0,0-1.366h-2.6Zm5.873-6.787a.683.683,0,0,1,0,1.366h0a.683.683,0,0,1,0-1.366Zm-4.1-6.829a.683.683,0,1,1-.683.683A.684.684,0,0,1,28.818,4.549ZM20.9,1.366a.683.683,0,1,1-.683.683A.684.684,0,0,1,20.9,1.366ZM9.785,4.253a.683.683,0,1,1,.683-.683h0A.684.684,0,0,1,9.785,4.253Zm-5.346,4.1a.683.683,0,1,1-.683.683A.684.684,0,0,1,4.439,8.351ZM2.049,26.318a.683.683,0,1,1,.683-.683A.684.684,0,0,1,2.049,26.318Zm4.78,4.78a.683.683,0,1,1,.683-.683A.684.684,0,0,1,6.829,31.1Zm7.239,2.5a.683.683,0,1,1,.683-.683A.684.684,0,0,1,14.068,33.6Zm17.5-11.624a.683.683,0,1,1-.683.683A.684.684,0,0,1,31.569,21.975Zm-5.892,2.2a1.5,1.5,0,0,1-1.5,1.5H10.79a1.5,1.5,0,0,1-1.5-1.5V10.79a1.5,1.5,0,0,1,1.5-1.5H24.175a1.5,1.5,0,0,1,1.5,1.5Zm0,0" transform="translate(0 0)" fill="#ff6072"/>
    <path id="Path_1831" data-name="Path 1831" d="M390.751,413.343v-1.46a.683.683,0,0,0-.683-.683h-2.119a.683.683,0,0,0,0,1.366h1.436v.778a2.049,2.049,0,1,0,1.366,0Zm-.683,2.614a.683.683,0,1,1,.683-.683A.684.684,0,0,1,390.068,415.957Zm0,0" transform="translate(-360.819 -383.119)" fill="#ff6072"/>
    <path id="Path_1832" data-name="Path 1832" d="M358.967,411.2h-.018a.683.683,0,1,0,0,1.366h.018a.683.683,0,1,0,0-1.366Zm0,0" transform="translate(-333.8 -383.118)" fill="#ff6072"/>
    <path id="Path_1833" data-name="Path 1833" d="M179.879,175.6a.685.685,0,1,0-.454-1.193l-.01.01a.683.683,0,0,0,.465,1.183Zm0,0" transform="translate(-166.959 -162.33)" fill="#ff6072"/>
  </g>
</svg>
