<svg xmlns="http://www.w3.org/2000/svg" width="33.634" height="33.633" viewBox="0 0 33.634 33.633">
  <g id="steering-wheel" transform="translate(0 0)">
    <path id="Path_1837" data-name="Path 1837" d="M16.817,33.633A16.817,16.817,0,1,0,0,16.817,16.816,16.816,0,0,0,16.817,33.633Zm0-32.512a15.7,15.7,0,1,1-15.7,15.7,15.7,15.7,0,0,1,15.7-15.7Zm0,0" fill="#352e94"/>
    <path id="Path_1838" data-name="Path 1838" d="M56.682,70.7A14.014,14.014,0,1,0,42.668,56.682,14.014,14.014,0,0,0,56.682,70.7ZM44.224,60l3.454-.92a4.485,4.485,0,0,1,5.641,4.33v5.718A12.94,12.94,0,0,1,44.224,60ZM54.44,69.376V63.408A5.606,5.606,0,0,0,47.39,58l-3.405.906a12.783,12.783,0,0,1-.031-4.264A39.285,39.285,0,0,1,56.682,52.2a39.286,39.286,0,0,1,12.729,2.441,12.782,12.782,0,0,1-.031,4.264L65.974,58a5.606,5.606,0,0,0-7.05,5.412v5.967a12.731,12.731,0,0,1-4.484,0Zm5.605-.249V63.408a4.485,4.485,0,0,1,5.64-4.33L69.14,60a12.94,12.94,0,0,1-9.095,9.128ZM56.682,43.789a12.914,12.914,0,0,1,12.454,9.564,39.894,39.894,0,0,0-12.454-2.276,39.894,39.894,0,0,0-12.454,2.276A12.914,12.914,0,0,1,56.682,43.789Zm0,0" transform="translate(-39.865 -39.865)" fill="#352e94"/>
    <path id="Path_1839" data-name="Path 1839" d="M204.113,200.19a3.924,3.924,0,1,0-3.924,3.924A3.924,3.924,0,0,0,204.113,200.19Zm-6.727,0a2.8,2.8,0,1,1,2.8,2.8A2.8,2.8,0,0,1,197.386,200.19Zm0,0" transform="translate(-183.373 -183.373)" fill="#352e94"/>
    <path id="Path_1840" data-name="Path 1840" d="M233.762,232.08a1.682,1.682,0,1,0-1.682,1.682A1.682,1.682,0,0,0,233.762,232.08Zm-2.242,0a.561.561,0,1,1,.561.561.561.561,0,0,1-.561-.561Zm0,0" transform="translate(-215.264 -215.264)" fill="#352e94"/>
  </g>
</svg>
