<svg xmlns="http://www.w3.org/2000/svg" width="33.624" height="33.633" viewBox="0 0 33.624 33.633">
  <g id="tyre" transform="translate(0 0)">
    <path id="Path_1841" data-name="Path 1841" d="M21.227.574A16.815,16.815,0,1,0,31.435,8.407,16.812,16.812,0,0,0,21.227.574Zm10.805,20.3A15.693,15.693,0,1,1,30.464,8.967a15.692,15.692,0,0,1,1.568,11.908Zm0,0" transform="translate(-0.063 0)" fill="#16d88a"/>
    <path id="Path_1842" data-name="Path 1842" d="M57.974,53.828a14.2,14.2,0,0,1,1.345-.673.561.561,0,0,0-.448-1.028,15.426,15.426,0,0,0-1.454.727,14.421,14.421,0,0,0-6.12,6.9.561.561,0,1,0,1.032.438,13.3,13.3,0,0,1,5.645-6.367Zm0,0" transform="translate(-47.89 -48.661)" fill="#16d88a"/>
    <path id="Path_1843" data-name="Path 1843" d="M319.526,331.232a.56.56,0,0,0-.735.3,13.3,13.3,0,0,1-5.648,6.369,13.728,13.728,0,0,1-2.789,1.211.56.56,0,0,0,.167,1.1.535.535,0,0,0,.165-.025,14.919,14.919,0,0,0,3.018-1.311,14.422,14.422,0,0,0,6.12-6.9A.56.56,0,0,0,319.526,331.232Zm0,0" transform="translate(-289.605 -309.437)" fill="#16d88a"/>
    <path id="Path_1844" data-name="Path 1844" d="M111.427,113.019c.008-.005.017-.006.025-.011a.477.477,0,0,0,.037-.039,10.667,10.667,0,0,0,3.773-9.853c0-.007,0-.012,0-.018a10.48,10.48,0,0,0-3.769-6.584c-.014-.012-.022-.028-.037-.039s-.014,0-.02-.008A10.665,10.665,0,0,0,100.957,94.8c-.006,0-.012,0-.018,0l-.007.006a9.723,9.723,0,0,0-2.862,1.65c-.008.005-.017.006-.025.011a.529.529,0,0,0-.037.039,10.668,10.668,0,0,0-3.772,9.853c0,.007,0,.012,0,.018a10.589,10.589,0,0,0,17.188,6.634Zm-4.463-5.679c-.016.009-.031.018-.046.028l-.478.28-.98.566a.553.553,0,0,0-.268.424,3.994,3.994,0,0,1-1.093-.036,1.121,1.121,0,0,0-.508-.646l-1.047-.6a1.121,1.121,0,0,0-.817-.116,3.479,3.479,0,0,1-.646-1.119,1.115,1.115,0,0,0,.306-.771v-1.211a1.111,1.111,0,0,0-.305-.767,3.966,3.966,0,0,1,.517-.956.527.527,0,0,0,.5-.022l.415-.24c.006,0,.013,0,.019-.008a.493.493,0,0,0,.046-.028l.479-.28.979-.566a.554.554,0,0,0,.268-.424,3.99,3.99,0,0,1,1.089.035,1.121,1.121,0,0,0,.514.645l1.044.606a1.122,1.122,0,0,0,.822.118,3.956,3.956,0,0,1,.375.53,3.8,3.8,0,0,1,.269.587,1.114,1.114,0,0,0-.306.771v1.211a1.11,1.11,0,0,0,.3.767,3.962,3.962,0,0,1-.518.957.551.551,0,0,0-.5.021l-.409.237Zm-7.79,5.027,2.809-4.046,1.047.6-2.1,4.454Zm-3.883-8.647,4.974.417v1.213l-4.98.415a9.525,9.525,0,0,1,.005-2.045Zm15.075-6.669-2.855,4.111-1.047-.6,2.133-4.523a9.493,9.493,0,0,1,1.77,1.019Zm3.839,8.711-4.974-.415v-1.213l4.98-.415a9.51,9.51,0,0,1-.006,2.045Zm-2.973,5.95-2.61-3.755a5.067,5.067,0,0,0,.845-1.461l4.55.38A9.514,9.514,0,0,1,111.233,111.712ZM113,99.978a9.5,9.5,0,0,1,1.034,2.634l-4.565.381a4.9,4.9,0,0,0-.349-.773,5.051,5.051,0,0,0-.494-.694l2.612-3.755A9.5,9.5,0,0,1,113,99.978Zm-8.268-4.764a9.587,9.587,0,0,1,2.812.427l-1.951,4.138a5.068,5.068,0,0,0-1.692-.005l-1.951-4.138a9.479,9.479,0,0,1,2.782-.422Zm-4.747,1.276a9.493,9.493,0,0,1,.912-.458l2.13,4.526-.537.312-.5.29L99.127,97.05A9.54,9.54,0,0,1,99.985,96.491Zm-1.721,1.281,2.609,3.758a5.071,5.071,0,0,0-.845,1.461l-4.551-.38A9.514,9.514,0,0,1,98.264,97.771ZM96.5,109.505a9.5,9.5,0,0,1-1.034-2.634l4.565-.381a4.909,4.909,0,0,0,.352.771,5.026,5.026,0,0,0,.493.692l-2.612,3.761A9.5,9.5,0,0,1,96.5,109.505Zm5.457,4.33L103.9,109.7a5.1,5.1,0,0,0,.863.083,5.007,5.007,0,0,0,.83-.077l1.949,4.135A9.513,9.513,0,0,1,101.955,113.835Zm6.646-.382-2.13-4.529.537-.312.5-.29,2.858,4.111a9.238,9.238,0,0,1-1.767,1.021Zm0,0" transform="translate(-87.937 -87.928)" fill="#16d88a"/>
    <path id="Path_1845" data-name="Path 1845" d="M224.748,221.961A2.242,2.242,0,1,0,226.109,223,2.241,2.241,0,0,0,224.748,221.961Zm.5,2.455A1.121,1.121,0,1,1,224.168,223a1.144,1.144,0,0,1,.292.039,1.121,1.121,0,0,1,.792,1.373Zm0,0" transform="translate(-207.356 -207.312)" fill="#16d88a"/>
    <path id="Path_1846" data-name="Path 1846" d="M188.91,43.24a.561.561,0,1,1-.561-.561A.56.56,0,0,1,188.91,43.24Zm0,0" transform="translate(-175.46 -39.877)" fill="#16d88a"/>
  </g>
</svg>
